HIERARCHY
ROOT Hips
{
	OFFSET 0.000000 97.167313 0.000000
	CHANNELS 6 Xposition Yposition Zposition Xrotation Yrotation Zrotation
	JOINT Spine
	{
		OFFSET 0.000000 13.784798 0.064400
		CHANNELS 3 Xrotation Yrotation Zrotation
		JOINT Spine1
		{
			OFFSET 0.000000 12.037903 0.404700
			CHANNELS 3 Xrotation Yrotation Zrotation
			JOINT Spine2
			{
				OFFSET 0.000000 17.795601 0.420200
				CHANNELS 3 Xrotation Yrotation Zrotation
				JOINT Neck
				{
					OFFSET 0.000000 39.131302 11.954600
					CHANNELS 3 Xrotation Yrotation Zrotation
					JOINT Head
					{
						OFFSET 0.000000 14.456192 15.627699
						CHANNELS 3 Xrotation Yrotation Zrotation
						JOINT HeadTop_End
						{
							OFFSET 0.000000 15.703506 7.603401
							CHANNELS 3 Xrotation Yrotation Zrotation
							End Site
							{
								OFFSET 0.000000 17.447403 0.000000
							}
						}
					}
				}
				JOINT LeftShoulder
				{
					OFFSET 17.399500 24.608795 1.168800
					CHANNELS 3 Xrotation Yrotation Zrotation
					JOINT LeftArm
					{
						OFFSET 18.980635 5.765305 1.818600
						CHANNELS 3 Xrotation Yrotation Zrotation
						JOINT LeftForeArm
						{
							OFFSET 49.290169 0.000000 0.000000
							CHANNELS 3 Xrotation Yrotation Zrotation
							JOINT LeftHand
							{
								OFFSET 31.562012 0.000000 0.000000
								CHANNELS 3 Xrotation Yrotation Zrotation
								JOINT LeftHandThumb1
								{
									OFFSET 6.133995 -4.388519 7.076070
									CHANNELS 3 Xrotation Yrotation Zrotation
									JOINT LeftHandThumb2
									{
										OFFSET 6.037666 -3.485840 3.485847
										CHANNELS 3 Xrotation Yrotation Zrotation
										JOINT LeftHandThumb3
										{
											OFFSET 6.496506 -3.750763 3.750761
											CHANNELS 3 Xrotation Yrotation Zrotation
											JOINT LeftHandThumb4
											{
												OFFSET 5.616882 -3.242905 3.242910
												CHANNELS 3 Xrotation Yrotation Zrotation
												End Site
												{
													OFFSET -1.254608 7.132141 0.375429
												}
											}
										}
									}
								}
								JOINT LeftHandPinky1
								{
									OFFSET 18.920792 -0.453171 -11.426712
									CHANNELS 3 Xrotation Yrotation Zrotation
									JOINT LeftHandPinky2
									{
										OFFSET 4.919586 0.000000 0.000000
										CHANNELS 3 Xrotation Yrotation Zrotation
										JOINT LeftHandPinky3
										{
											OFFSET 5.233047 0.000000 0.000000
											CHANNELS 3 Xrotation Yrotation Zrotation
											JOINT LeftHandPinky4
											{
												OFFSET 5.571716 0.000000 0.000000
												CHANNELS 3 Xrotation Yrotation Zrotation
												End Site
												{
													OFFSET -3.459808 4.342407 -0.466164
												}
											}
										}
									}
								}
								JOINT LeftHandRing1
								{
									OFFSET 22.726120 -0.094986 -6.500475
									CHANNELS 3 Xrotation Yrotation Zrotation
									JOINT LeftHandRing2
									{
										OFFSET 6.408615 0.000000 0.000000
										CHANNELS 3 Xrotation Yrotation Zrotation
										JOINT LeftHandRing3
										{
											OFFSET 6.150223 0.000000 0.000000
											CHANNELS 3 Xrotation Yrotation Zrotation
											JOINT LeftHandRing4
											{
												OFFSET 6.145386 0.000000 0.000000
												CHANNELS 3 Xrotation Yrotation Zrotation
												End Site
												{
													OFFSET -3.671402 4.923981 -0.202372
												}
											}
										}
									}
								}
								JOINT LeftHandMiddle1
								{
									OFFSET 23.373947 0.000000 0.000001
									CHANNELS 3 Xrotation Yrotation Zrotation
									JOINT LeftHandMiddle2
									{
										OFFSET 6.996567 0.000000 0.000000
										CHANNELS 3 Xrotation Yrotation Zrotation
										JOINT LeftHandMiddle3
										{
											OFFSET 7.015945 0.000000 0.000000
											CHANNELS 3 Xrotation Yrotation Zrotation
											JOINT LeftHandMiddle4
											{
												OFFSET 7.721573 0.000000 0.000000
												CHANNELS 3 Xrotation Yrotation Zrotation
												End Site
												{
													OFFSET -4.651108 6.158463 0.251582
												}
											}
										}
									}
								}
								JOINT LeftHandIndex1
								{
									OFFSET 21.310577 -0.490082 6.209344
									CHANNELS 3 Xrotation Yrotation Zrotation
									JOINT LeftHandIndex2
									{
										OFFSET 7.536453 0.000000 0.000000
										CHANNELS 3 Xrotation Yrotation Zrotation
										JOINT LeftHandIndex3
										{
											OFFSET 7.512344 0.000000 0.000000
											CHANNELS 3 Xrotation Yrotation Zrotation
											JOINT LeftHandIndex4
											{
												OFFSET 10.212402 0.000000 0.000001
												CHANNELS 3 Xrotation Yrotation Zrotation
												End Site
												{
													OFFSET -5.180801 8.690506 1.388433
												}
											}
										}
									}
								}
							}
						}
					}
				}
				JOINT RightShoulder
				{
					OFFSET -17.399500 24.608795 1.168800
					CHANNELS 3 Xrotation Yrotation Zrotation
					JOINT RightArm
					{
						OFFSET -18.980635 5.765305 1.818600
						CHANNELS 3 Xrotation Yrotation Zrotation
						JOINT RightForeArm
						{
							OFFSET -49.290169 0.000000 0.000000
							CHANNELS 3 Xrotation Yrotation Zrotation
							JOINT RightHand
							{
								OFFSET -31.562012 0.000000 0.000000
								CHANNELS 3 Xrotation Yrotation Zrotation
								JOINT RightHandThumb1
								{
									OFFSET -6.133995 -4.388519 7.076070
									CHANNELS 3 Xrotation Yrotation Zrotation
									JOINT RightHandThumb2
									{
										OFFSET -6.037666 -3.485840 3.485847
										CHANNELS 3 Xrotation Yrotation Zrotation
										JOINT RightHandThumb3
										{
											OFFSET -6.496506 -3.750763 3.750761
											CHANNELS 3 Xrotation Yrotation Zrotation
											JOINT RightHandThumb4
											{
												OFFSET -5.616882 -3.242905 3.242910
												CHANNELS 3 Xrotation Yrotation Zrotation
												End Site
												{
													OFFSET 1.254608 7.132141 0.375429
												}
											}
										}
									}
								}
								JOINT RightHandIndex1
								{
									OFFSET -21.310577 -0.490082 6.209344
									CHANNELS 3 Xrotation Yrotation Zrotation
									JOINT RightHandIndex2
									{
										OFFSET -7.536453 0.000000 0.000000
										CHANNELS 3 Xrotation Yrotation Zrotation
										JOINT RightHandIndex3
										{
											OFFSET -7.512344 0.000000 0.000000
											CHANNELS 3 Xrotation Yrotation Zrotation
											JOINT RightHandIndex4
											{
												OFFSET -10.212402 0.000000 0.000001
												CHANNELS 3 Xrotation Yrotation Zrotation
												End Site
												{
													OFFSET 5.180801 8.690506 1.388433
												}
											}
										}
									}
								}
								JOINT RightHandMiddle1
								{
									OFFSET -23.373947 0.000000 0.000001
									CHANNELS 3 Xrotation Yrotation Zrotation
									JOINT RightHandMiddle2
									{
										OFFSET -6.996567 0.000000 0.000000
										CHANNELS 3 Xrotation Yrotation Zrotation
										JOINT RightHandMiddle3
										{
											OFFSET -7.015945 0.000000 0.000000
											CHANNELS 3 Xrotation Yrotation Zrotation
											JOINT RightHandMiddle4
											{
												OFFSET -7.721573 0.000000 0.000000
												CHANNELS 3 Xrotation Yrotation Zrotation
												End Site
												{
													OFFSET 4.651108 6.158463 0.251582
												}
											}
										}
									}
								}
								JOINT RightHandRing1
								{
									OFFSET -22.726120 -0.094986 -6.500475
									CHANNELS 3 Xrotation Yrotation Zrotation
									JOINT RightHandRing2
									{
										OFFSET -6.408615 0.000000 0.000000
										CHANNELS 3 Xrotation Yrotation Zrotation
										JOINT RightHandRing3
										{
											OFFSET -6.150223 0.000000 0.000000
											CHANNELS 3 Xrotation Yrotation Zrotation
											JOINT RightHandRing4
											{
												OFFSET -6.145386 0.000000 0.000000
												CHANNELS 3 Xrotation Yrotation Zrotation
												End Site
												{
													OFFSET 3.671402 4.923981 -0.202372
												}
											}
										}
									}
								}
								JOINT RightHandPinky1
								{
									OFFSET -18.920792 -0.453171 -11.426712
									CHANNELS 3 Xrotation Yrotation Zrotation
									JOINT RightHandPinky2
									{
										OFFSET -4.919586 0.000000 0.000000
										CHANNELS 3 Xrotation Yrotation Zrotation
										JOINT RightHandPinky3
										{
											OFFSET -5.233047 0.000000 0.000000
											CHANNELS 3 Xrotation Yrotation Zrotation
											JOINT RightHandPinky4
											{
												OFFSET -5.571716 0.000000 0.000000
												CHANNELS 3 Xrotation Yrotation Zrotation
												End Site
												{
													OFFSET 3.459808 4.342407 -0.466164
												}
											}
										}
									}
								}
							}
						}
					}
				}
			}
		}
	}
	JOINT LeftUpLeg
	{
		OFFSET 19.899099 -7.885101 -3.429500
		CHANNELS 3 Xrotation Yrotation Zrotation
		JOINT LeftLeg
		{
			OFFSET 1.745560 -36.997807 10.304700
			CHANNELS 3 Xrotation Yrotation Zrotation
			JOINT LeftFoot
			{
				OFFSET -1.745558 -29.803308 -13.615400
				CHANNELS 3 Xrotation Yrotation Zrotation
				JOINT LeftToeBase
				{
					OFFSET 1.181900 -18.539904 15.226099
					CHANNELS 3 Xrotation Yrotation Zrotation
					JOINT LeftToe_End
					{
						OFFSET -0.863701 1.402801 16.534700
						CHANNELS 3 Xrotation Yrotation Zrotation
						End Site
						{
							OFFSET 0.000000 16.616566 0.000000
						}
					}
				}
			}
		}
	}
	JOINT RightUpLeg
	{
		OFFSET -19.899099 -7.885101 -3.429500
		CHANNELS 3 Xrotation Yrotation Zrotation
		JOINT RightLeg
		{
			OFFSET -1.745560 -36.997807 10.304700
			CHANNELS 3 Xrotation Yrotation Zrotation
			JOINT RightFoot
			{
				OFFSET 1.745558 -29.803308 -13.615400
				CHANNELS 3 Xrotation Yrotation Zrotation
				JOINT RightToeBase
				{
					OFFSET -1.181900 -18.539904 15.226099
					CHANNELS 3 Xrotation Yrotation Zrotation
					JOINT RightToe_End
					{
						OFFSET 0.863701 1.402801 16.534700
						CHANNELS 3 Xrotation Yrotation Zrotation
						End Site
						{
							OFFSET 0.000000 16.616566 0.000000
						}
					}
				}
			}
		}
	}
}
MOTION
Frames: 4
Frame Time: 0.033333
1.771250 88.174057 2.554568 3.979459 11.199554 -1.642213 1.325116 0.100577 1.856189 -0.492649 0.005209 -0.166091 -0.492628 0.004095 -0.166166 -5.226869 -1.269370 1.849158 -5.449410 -3.246935 -1.445211 0.000000 0.000000 0.000000 0.648071 -4.720684 -4.305159 7.784811 -17.797026 -73.977827 0.000004 -24.523431 -0.000021 1.280292 21.562709 0.477038 -1.575625 -0.237152 13.863054 10.499013 28.887944 -6.795345 2.552914 10.686993 0.705385 0.000002 -0.000003 -0.000005 3.035418 6.094377 -40.394664 0.566207 -1.333405 -23.705454 0.032685 0.671434 -5.572806 0.000001 0.000001 -0.000000 4.617847 7.218670 -47.892019 1.087696 3.719312 -32.592457 0.138133 1.374997 -11.472413 0.000000 0.000000 -0.000002 2.627128 5.541679 -42.574451 1.265833 3.983650 -35.244138 0.311164 2.050348 -17.256931 0.000002 -0.000004 0.000004 -1.390697 2.099181 -50.590211 0.886100 3.384009 -29.339101 0.121562 1.290680 -10.759933 0.000002 0.000003 -0.000003 0.305103 -1.049296 2.473466 1.386398 19.532680 73.251224 0.000027 32.324256 -0.000019 13.947818 -6.331583 -1.774467 -1.783403 -2.529205 -5.833566 18.526080 -27.199779 21.580249 0.807599 -5.534256 -2.151344 -0.000002 -0.000002 -0.000003 -4.330550 -0.129296 52.984772 1.042696 -3.667465 31.732431 0.001021 -0.119740 0.982588 0.000001 -0.000001 0.000004 -1.999876 -1.287519 48.123587 0.735634 -3.117623 26.547017 -0.612013 -0.986057 7.387960 0.000001 0.000002 -0.000001 -0.138664 -2.355659 39.873548 1.774131 -4.643821 41.799672 -0.167905 -0.889149 7.085522 -0.000001 0.000002 -0.000005 -2.494174 -1.004495 49.246091 0.923257 -3.467275 29.813171 0.104558 1.203689 -9.928010 0.000000 0.000001 0.000002 -27.968781 -0.117917 3.734052 47.045274 8.086460 2.182166 0.494383 5.962324 -12.702215 -16.184970 -0.448179 1.816124 0.000000 -0.000002 -0.000000 -9.546944 -4.162395 4.606238 27.379349 -6.401780 -1.629458 -21.974066 -1.309994 -0.235251 -2.035632 0.000001 0.000000 -0.000000 0.000000 0.000000 
1.348608 89.245430 9.214219 4.210784 9.357933 -1.270819 1.362710 0.333788 1.030422 -0.637493 0.075183 -0.033238 -0.637322 0.077353 -0.034798 -4.892523 -1.150315 2.173216 -6.420713 -2.329611 -1.060077 -0.000000 -0.000000 0.000000 0.662159 -5.083195 -4.513462 15.593078 -13.256908 -72.756377 0.000012 -22.671017 0.000012 4.611486 21.795721 -5.939736 -1.181542 -2.934423 13.847439 9.708461 27.361938 -5.994558 2.560758 10.707100 0.700951 0.000001 0.000002 -0.000002 1.939266 4.835213 -39.080806 0.570120 -1.324499 -23.785958 0.034374 0.688528 -5.715161 -0.000003 0.000001 0.000001 4.018619 6.650645 -48.492922 1.121839 3.772075 -33.115144 0.135717 1.363013 -11.371062 -0.000000 0.000003 0.000000 1.860447 4.712350 -43.703601 1.335721 4.080518 -36.237996 0.305394 2.031682 -17.094845 0.000001 0.000002 0.000007 -2.077566 1.672096 -51.687105 0.903901 3.415425 -29.639343 0.118034 1.272032 -10.602632 -0.000002 0.000005 -0.000001 0.299614 -0.437907 1.186939 -2.131055 24.034729 71.772741 0.000018 40.842154 -0.000019 13.996635 -8.081346 -2.736862 -1.792346 -2.284179 -6.003033 18.543766 -27.044450 21.732168 0.788991 -5.484322 -2.151072 0.000001 0.000000 0.000003 -4.251654 -0.167239 52.862635 1.048929 -3.677475 31.829815 0.001452 -0.143103 1.174323 0.000003 0.000002 0.000001 -2.097907 -1.262435 48.586810 0.734049 -3.114466 26.517926 -0.612805 -0.979988 7.342192 0.000001 0.000000 -0.000008 -0.250380 -2.239963 40.115897 1.780174 -4.650560 41.874206 -0.168568 -0.883674 7.041855 0.000000 0.000001 0.000000 -2.724278 -0.839432 49.489181 0.922845 -3.466565 29.806307 0.104553 1.203680 -9.928020 -0.000003 -0.000003 0.000000 -31.345565 1.072477 2.959324 35.874086 8.017200 1.801825 -1.482945 6.079120 -10.925589 -7.820653 0.000012 -0.000001 -0.000000 0.000000 -0.000000 -1.204312 -4.336318 6.219703 20.600445 -6.077536 -1.801234 -23.885168 0.272720 -2.806956 -3.079846 0.000002 -0.000000 0.000000 -0.000000 -0.000000 
0.930014 89.935638 15.231112 4.563110 7.693050 -0.994597 1.391683 0.471862 0.167192 -0.756414 0.139224 0.110868 -0.756469 0.145763 0.107633 -4.754344 -1.044907 2.482355 -7.616619 -1.490605 -0.786717 -0.000000 0.000000 -0.000000 0.655167 -4.804188 -4.036944 21.962968 -11.540896 -72.798028 -0.000002 -18.881090 -0.000012 8.126521 17.183395 -9.811259 -0.770671 -5.235410 14.715641 9.406982 26.631206 -5.732592 2.670954 10.988408 0.639099 -0.000001 0.000001 -0.000004 1.209399 3.935937 -38.798541 0.564015 -1.338410 -23.660185 0.038230 0.726104 -6.028191 -0.000000 0.000004 0.000002 4.045927 6.648046 -49.006792 1.161769 3.832481 -33.717359 0.139375 1.381064 -11.523726 -0.000001 -0.000003 0.000003 1.712073 4.564388 -44.514931 1.427894 4.203040 -37.514011 0.311101 2.050187 -17.255503 -0.000001 0.000002 0.000011 -2.474620 1.435646 -52.267220 0.939303 3.476790 -30.228375 0.125921 1.313434 -10.952027 0.000001 0.000005 0.000000 0.333501 0.331824 0.340844 -7.248910 26.148918 71.198227 -0.000005 46.828890 0.000012 14.882188 -7.469924 -4.656246 -1.800084 -1.989161 -6.177294 18.555619 -26.935626 21.838533 0.762897 -5.414238 -2.150722 0.000004 0.000000 0.000002 -4.169489 -0.243302 52.921948 1.057408 -3.691065 31.961419 0.001942 -0.164790 1.352369 0.000001 -0.000003 0.000006 -2.169195 -1.262270 49.040663 0.734733 -3.115775 26.530026 -0.613709 -0.972986 7.289379 0.000002 0.000005 -0.000004 -0.333184 -2.164486 40.402423 1.789743 -4.661183 41.992249 -0.169266 -0.878143 6.997397 0.000002 0.000001 -0.000005 -2.947843 -0.682928 49.731512 0.923929 -3.468430 29.824188 0.104554 1.203697 -9.928015 -0.000001 -0.000002 0.000005 -34.312729 1.444921 2.052841 24.171450 8.456369 2.201092 -2.590071 6.022341 -9.369069 -11.723991 0.000003 0.000002 0.000001 -0.000000 0.000001 5.431108 -4.162972 6.813360 14.792718 -5.259378 -1.499376 -23.389935 0.734719 -3.709229 -4.878631 0.000000 0.000000 0.000000 -0.000000 -0.000000 
0.608149 89.860443 20.798122 4.860704 6.439122 -0.909903 1.456705 0.720829 -0.499188 -0.843531 0.249068 0.260546 -0.844262 0.260993 0.254262 -4.673548 -0.998204 2.641140 -8.826942 -1.162845 -0.506013 0.000000 0.000000 0.000000 0.622608 -4.036175 -2.987769 27.848539 -10.837178 -73.572653 0.000009 -16.543983 0.000007 11.867085 11.641751 -10.374427 -0.786347 -5.164099 14.664758 9.487336 26.739257 -5.840102 2.715744 11.102108 0.614003 -0.000001 0.000001 -0.000001 1.691459 4.530605 -39.251789 0.561887 -1.343267 -23.616397 0.036788 0.712304 -5.913299 -0.000002 -0.000001 -0.000002 4.192434 6.775877 -48.976367 1.159083 3.828426 -33.676944 0.138106 1.374895 -11.471525 -0.000001 -0.000001 0.000003 1.876228 4.730720 -44.490749 1.457800 4.241618 -37.920346 0.311075 2.050071 -17.254455 -0.000001 -0.000000 0.000004 -2.451415 1.431029 -52.107827 0.958190 3.508951 -30.538353 0.125439 1.310944 -10.931079 -0.000000 0.000001 -0.000001 0.395864 1.242724 -0.274895 -11.481839 26.907532 70.148652 0.000017 52.622513 0.000007 14.115920 -5.219533 -6.784529 -1.808914 -1.750505 -6.446013 18.565361 -26.843492 21.928502 0.717114 -5.291341 -2.150049 0.000002 0.000002 0.000004 -4.094745 -0.361840 53.236280 1.069434 -3.710259 32.148027 0.002587 -0.190222 1.561239 -0.000002 -0.000003 -0.000001 -2.246183 -1.288417 49.702248 0.733791 -3.113947 26.513143 -0.614656 -0.965394 7.232163 0.000001 -0.000001 -0.000007 -0.454445 -2.054240 40.785221 1.803033 -4.675856 42.155473 -0.170198 -0.870376 6.935153 -0.000001 -0.000002 -0.000002 -3.231154 -0.489297 50.041603 0.926617 -3.473111 29.868769 0.104548 1.203672 -9.928018 0.000000 -0.000004 -0.000002 -38.204407 1.565431 0.845126 15.743140 9.522031 2.720236 -4.719618 3.632353 -5.114143 -12.290172 -0.000006 -0.000002 -0.000000 -0.000002 0.000001 10.744700 -4.138202 7.167865 11.082625 -4.657450 -1.198069 -22.891796 0.895738 -4.035152 -7.500623 0.000001 -0.000002 0.000000 0.000000 0.000000 
